# xmcd
#
# Track frame offsets: 
#        183
#        13453
#        28000
#        48075
#        62283
#        77270
#        90270
#        104808
#        117858
#        131613
#        146533
#        160910
#        176695
#        191245
#        206910
#        220933
#        234075
#        245653
#
# Disc length: 3464 seconds
#
# Revision: 2
# Processed by: cddbd v1.5.2PL0 Copyright (c) Steve Scherf et al.
# Submitted via: ExactAudioCopy v1.3
#
DISCID=f60d8612
DTITLE=Tommy Dorsey and His Orch. - Tommy Dorsey and his Orchestra  with
DTITLE=Frank Sinatra 1935 - 1947with Frank Sinatra
DYEAR=1993
DGENRE=Swing
TTITLE0=The Sentimentalists, Tommy Dorsey and His Orch. - Opus One (1944
TTITLE0=)
TTITLE1=The Sentimentalists, Tommy Dorsey and His Orch. - On the Sunny S
TTITLE1=ide of the Street (1944)
TTITLE2=I'm Getting Sentimental Over You (1947)
TTITLE3=Boogie Woogie (1938)
TTITLE4=Frank Sinatra and Chorus, Tommy Dorsey and His Orch. - Blue Skies 
TTITLE4=(1941)
TTITLE5=Royal Garden Blues (1936)
TTITLE6=Frank Sinatra and The Pied Pipers, Tommy Dorsey and His Orch. - St
TTITLE6=ardust (1940)
TTITLE7=Sy Oliver and The Sentimentalists, Tommy Dorsey and His Orch. - Ch
TTITLE7=icago (1945)
TTITLE8=Frank Sinatra and Chorus, Tommy Dorsey and His Orch. - Well Git It
TTITLE8=(1942)
TTITLE9=Marie (1937)
TTITLE10=Frank Sinatra and Chorus, Tommy Dorsey and His Orch. - Imaginatio
TTITLE10=n (1940)
TTITLE11=Frank Sinatra and The Pied Pipers, Tommy Dorsey and His Orch. - Y
TTITLE11=es, Indeed (1941)
TTITLE12=Weary Blues (1935)
TTITLE13=Liebestraum (1937)
TTITLE14=Hawaiian War Chant (1938)
TTITLE15=Frank Sinatra and The Pied Pipers, Tommy Dorsey and His Orch. - W
TTITLE15=hispering (1940)
TTITLE16=Mendelssohn's Spring Song (1937)
TTITLE17=Song Of India (1937)
EXTD=
EXTT0=
EXTT1=
EXTT2=
EXTT3=
EXTT4=
EXTT5=
EXTT6=
EXTT7=
EXTT8=
EXTT9=
EXTT10=
EXTT11=
EXTT12=
EXTT13=
EXTT14=
EXTT15=
EXTT16=
EXTT17=
PLAYORDER=
